<svg data-name="Layer 1" xmlns="http://www.w3.org/2000/svg" width="904.362" height="586.406"><path d="M28.662 450.064c4.482-45.747 31.57-91.412 74.671-107.385a211.783 211.783 0 0 0 3.8 145.353c7.154 17.902 16.975 37.068 11.164 55.449-3.615 11.437-12.957 20.36-23.51 26.061-10.553 5.702-22.355 8.596-34.01 11.434l-2.257 1.968c-19.702-41.53-34.34-87.133-29.858-132.88Z" fill="#f0f0f0"/><path d="M103.787 343.53c-24.335 28.723-39.652 65.407-42.33 103.015-.579 8.13-.458 16.428 1.523 24.376a44.71 44.71 0 0 0 11.656 20.44c5.154 5.374 11.048 10.275 14.806 16.808 3.96 6.886 4.312 14.819 1.92 22.306-2.93 9.16-8.975 16.722-15.143 23.911-6.85 7.983-14.09 16.166-16.818 26.583-.33 1.262-2.27.675-1.94-.585 4.747-18.124 21.942-28.797 29.847-45.215 3.689-7.662 5.09-16.48 1.24-24.366-3.367-6.896-9.441-11.954-14.706-17.35-5.529-5.666-9.818-11.93-12.143-19.562-2.377-7.807-2.822-16.118-2.454-24.228a175.619 175.619 0 0 1 11.431-53.685 184.227 184.227 0 0 1 31.732-53.932c.84-.992 2.214.498 1.38 1.484Z" fill="#fff"/><path d="M61.683 434.275a27.158 27.158 0 0 1-21.408-27.901 1.014 1.014 0 0 1 2.026.048 25.148 25.148 0 0 0 19.967 25.913c1.275.268.683 2.206-.585 1.94ZM71.664 488.98a52.346 52.346 0 0 0 22.582-30.746c.335-1.26 2.274-.674 1.94.585a54.447 54.447 0 0 1-23.564 31.947c-1.105.695-2.057-1.094-.958-1.786ZM80.03 378.192a15.373 15.373 0 0 0 14.543-1.119c1.097-.709 2.048 1.08.958 1.785a17.227 17.227 0 0 1-16.087 1.274 1.047 1.047 0 0 1-.677-1.262 1.018 1.018 0 0 1 1.262-.678Z" fill="#fff"/><path d="M238.013 420.668c-.671.463-1.343.925-2.016 1.404a202.453 202.453 0 0 0-25.35 20.878 89.145 89.145 0 0 0-1.835 1.775 213.43 213.43 0 0 0-44.684 64.638 207.267 207.267 0 0 0-10.584 29.66c-3.825 14.006-6.859 29.495-14.852 41.078a35.558 35.558 0 0 1-2.68 3.49l-74.916 1.954c-.173-.081-.346-.145-.519-.226l-2.988.215c.107-.533.229-1.084.335-1.617.06-.31.138-.62.198-.929.046-.206.092-.413.121-.602a2.84 2.84 0 0 1 .046-.189c.03-.189.077-.361.107-.533q1.008-4.618 2.085-9.239c0-.017 0-.017.015-.035 5.53-23.456 13.066-46.658 23.884-67.978.326-.641.65-1.3 1.01-1.942a197.78 197.78 0 0 1 17.057-27.4 174.848 174.848 0 0 1 11.293-13.618 145.397 145.397 0 0 1 35.661-28.194c26.5-14.887 57.466-21.133 86.407-13.216.74.203 1.465.406 2.205.626Z" fill="#f0f0f0"/><path d="M237.87 421.624c-36.724 8.282-71.04 28.35-95.82 56.765-5.358 6.144-10.258 12.842-13.46 20.38a44.71 44.71 0 0 0-3 23.339c.88 7.393 2.635 14.855 1.702 22.333-.984 7.883-5.479 14.43-11.898 18.966-7.853 5.551-17.232 7.95-26.486 9.976-10.275 2.25-20.983 4.424-29.433 11.099-1.024.808-2.219-.828-1.197-1.635 14.702-11.613 34.857-9.782 51.054-18.132 7.558-3.897 13.987-10.094 15.66-18.709 1.463-7.533-.341-15.228-1.296-22.707-1.003-7.853-.657-15.436 2.082-22.929 2.802-7.665 7.45-14.569 12.628-20.822a175.62 175.62 0 0 1 41.449-35.983 184.227 184.227 0 0 1 57.807-23.957c1.268-.286 1.468 1.731.208 2.016Z" fill="#fff"/><path d="M149.617 468.728a27.158 27.158 0 0 1-.294-35.166c.839-.997 2.428.26 1.588 1.259a25.148 25.148 0 0 0 .34 32.71c.858.983-.782 2.174-1.634 1.197ZM124.65 518.417a52.346 52.346 0 0 0 36.542-10.953c1.026-.805 2.222.83 1.196 1.635a54.447 54.447 0 0 1-38.048 11.32c-1.301-.11-.984-2.111.31-2.002ZM198.031 434.996a15.373 15.373 0 0 0 12.287 7.863c1.302.094.984 2.095-.31 2.002a17.227 17.227 0 0 1-13.611-8.669 1.047 1.047 0 0 1 .219-1.415 1.018 1.018 0 0 1 1.415.219Z" fill="#fff"/><path d="M677.703 40.138c-1.119-3.303-15.145-14.53-6.55-16.417l7.049 9.398L710.608.713l3.26 3.26ZM677.703 150.332c-1.119-3.303-15.145-14.53-6.55-16.417l7.049 9.399 32.406-32.406 3.26 3.259ZM677.703 262.1c-1.119-3.303-15.145-14.53-6.55-16.417l7.049 9.399 32.406-32.406 3.26 3.259Z" fill="#3369ff"/><circle cx="647.862" cy="161.738" r="10" fill="#3f3d56"/><circle cx="647.862" cy="52.738" r="10" fill="#3f3d56"/><path fill="#3f3d56" d="M743.362 29.738h161v2h-161z"/><circle cx="652.862" cy="277.932" r="10" fill="#3f3d56"/><path fill="#3f3d56" d="M743.362 139.932h161v2h-161zM743.362 251.7h161v2h-161zM702.96 277h-50v-51h34v2h-32v47h46v-23h2v25zM702.96 165h-50v-51h34v2h-32v47h46v-23h2v25zM702.96 51h-50V0h34v2h-32v47h46V26h2v25z"/><path d="M376.505 181.772s-13.363 56.42 2.97 56.42 54.936-63.844 54.936-63.844l-13.363-16.333-23.985 33.3-1.256-16.967Z" fill="#a0616a"/><circle cx="430.85" cy="163.801" r="13" fill="#a0616a"/><path fill="#a0616a" d="m365.175 566.048 17.303-.001 8.233-66.746-25.54.001.004 66.746z"/><path d="m364.565 584.1 53.213-.002v-.673a20.713 20.713 0 0 0-20.712-20.712h-.001l-9.72-7.374-18.136 7.375h-4.645Z" fill="#2f2e41"/><path fill="#a0616a" d="m179.038 544.459 15.483 7.726 37.172-56.045-22.852-11.404-29.803 59.723z"/><path d="m170.431 560.338 47.613 23.762.3-.603a20.713 20.713 0 0 0-9.282-27.78l-.001-.001-5.404-10.939-19.52-1.5-4.157-2.074Z" fill="#2f2e41"/><path fill="#ccc" d="M0 584.165h569.85v2.241H0z"/><path d="M253.298 284.128s-6.915 83.148-8.4 100.966a126.71 126.71 0 0 1-7.424 32.664s-2.97 5.94-2.97 11.879L200.85 490.8s-10.284 7.559-8.8 13.498-6.2 9.502-6.2 9.502l35.442 6.83s-1.485-4.454 2.97-5.939 8-14.363 8-14.363l49.755-81.086 35.635-74.238s20.787 66.814 25.24 74.238c0 0 16.333 83.147 19.303 90.571s4.454 7.424 2.97 10.394-1.485 5.939 0 7.423 29.695 0 29.695 0l-7.424-105.418-13.363-126.206-68.3-20.786Z" fill="#2f2e41"/><circle cx="320.167" cy="54.452" r="31.18" fill="#a0616a"/><path d="m377.043 131.198-37.118-22.488s-1.03-13.965-11.605-14.622c-5.31-.33-13.278-.835-25.235-1.606-2.527-.163-4.232 13.663-7.128 13.475l-39.18 10.393 5.938 100.965s-8.908 40.088-5.939 47.512-7.424 10.394-4.454 11.878 0 11.879 0 11.879 57.906 29.695 121.75 7.423l-5.938-19.302a15.58 15.58 0 0 0-2.97-14.847s5.94-8.909-1.484-16.333c0 0 2.97-13.363-4.455-19.302l-1.485-20.787 4.455-10.393Z" fill="#e6e6e6"/><path d="m293.11 72.264-.87-2.024c-.113-.262-11.14-26.33-1.366-42.409 4.524-7.444 12.751-11.646 24.452-12.49 18.307-1.324 30.836 3.02 37.25 12.899a11.075 11.075 0 0 1-9.334 17.06h-.247l-3.363-4.367-.196.425c-1.218 2.634-4.015 4.077-7.29 3.76-.558-.04-1.051.442-1.448 1.471a2.615 2.615 0 0 1-1.957 1.814c-2.42.471-5.871-2.578-7.415-4.097a2.478 2.478 0 0 1-1.156 1.701c-1.627.94-4.16-.287-4.887-.678-5.791 1.23-9.54.901-11.146-.977-1.09 7.703-3.426 21.57-6.228 22.338a1.4 1.4 0 0 1-1.53-.668c-.675-.876-1.278-1.313-1.654-1.19-.912.29-1.45 3.292-1.527 5.23Z" fill="#2f2e41"/><path d="m360.71 132.683 14.811-2.406a72.314 72.314 0 0 1 20.824 38.04c4.454 23.757 5.939 28.211 5.939 28.211l-35.635 8.909-19.302-37.12Z" fill="#e6e6e6"/><path fill="#fff" d="m285.834 279.617 9.153-116.035 233.585 18.426-9.153 116.035z"/><path d="M319.943 172.572c-5.717-4.082-12.974-4.377-15.747-4.318.846 2.64 3.475 9.411 9.19 13.495 5.731 4.093 12.98 4.379 15.748 4.322-.845-2.64-3.474-9.414-9.191-13.499ZM342.493 246.407l-37.507-2.958a8.465 8.465 0 1 0-1.331 16.878l37.507 2.958a8.465 8.465 0 0 0 1.331-16.878Z" fill="#3369ff"/><path d="m519.364 170.73-210.29-16.59a18.683 18.683 0 0 0-20.092 17.159l-8.088 102.45a18.693 18.693 0 0 0 17.162 20.102l210.29 16.59a18.683 18.683 0 0 0 20.092-17.159l7.685-97.375.155-1.99.245-3.095a18.683 18.683 0 0 0-17.16-20.092Zm-6.21 89.138-1.332 16.878a11.315 11.315 0 0 1-12.142 10.361l-28.134-2.217a11.315 11.315 0 0 1-10.36-12.141l1.332-16.879a11.32 11.32 0 0 1 12.142-10.36l28.123 2.219a11.329 11.329 0 0 1 10.371 12.139Zm-219.134-8.801a10.346 10.346 0 0 1 11.115-9.491l37.505 2.96a10.342 10.342 0 1 1-1.608 20.622l-.02.005-37.505-2.96a10.334 10.334 0 0 1-9.487-11.136Zm8.03-83.482-.257-1.05 1.08-.098c.421-.046 10.398-.941 18.164 4.606 7.766 5.548 10.148 15.281 10.251 15.688l.247 1.052-1.076.108a28.423 28.423 0 0 1-4.59-.03 27.137 27.137 0 0 1-13.578-4.586c-7.766-5.547-10.148-15.28-10.241-15.69Z" fill="#3369ff"/><path d="m481.603 271.062-12.19-.962a3.292 3.292 0 0 0-.517 6.564l12.19.961a3.292 3.292 0 0 0 .517-6.563ZM504.107 272.837l-12.19-.962a3.292 3.292 0 0 0-.517 6.564l12.19.961a3.292 3.292 0 0 0 .517-6.563ZM482.269 262.622l-12.19-.961a3.292 3.292 0 0 0-.518 6.564l12.19.961a3.292 3.292 0 0 0 .518-6.564ZM504.773 264.398l-12.19-.962a3.292 3.292 0 0 0-.517 6.564l12.19.961a3.292 3.292 0 0 0 .517-6.563ZM482.935 254.183l-12.19-.961a3.292 3.292 0 0 0-.518 6.564l12.19.961a3.292 3.292 0 0 0 .518-6.564ZM505.439 255.959l-12.19-.962a3.292 3.292 0 0 0-.518 6.564l12.19.961a3.292 3.292 0 0 0 .518-6.563Z" fill="#3369ff"/><path fill="#fff" d="m285.7 205.62.156-1.995 246.853 19.391-.157 1.995z"/><path fill="#3f3d56" d="m536.278 193.917-.155 1.99-8.591-.674-91.533-7.19.165-1.992 91.523 7.192 8.591.674z"/><path d="M234.505 172.772s-13.363 56.42 2.97 56.42 54.936-63.844 54.936-63.844l-13.363-16.333-23.985 33.3-1.256-16.967Z" fill="#a0616a"/><circle cx="288.85" cy="154.801" r="13" fill="#a0616a"/><path d="m267.592 125.259-8.908-8.909s-17.818 10.394-19.302 20.787-8.909 43.059-8.909 43.059l27.468 2.227 8.909-13.363Z" fill="#e6e6e6"/></svg>